<?xml version="1.0" encoding="UTF-8" standalone="no"?>
<!-- Created with Inkscape (http://www.inkscape.org/) -->

<svg
   xmlns:dc="http://purl.org/dc/elements/1.1/"
   xmlns:cc="http://creativecommons.org/ns#"
   xmlns:rdf="http://www.w3.org/1999/02/22-rdf-syntax-ns#"
   xmlns:svg="http://www.w3.org/2000/svg"
   xmlns="http://www.w3.org/2000/svg"
   xmlns:sodipodi="http://sodipodi.sourceforge.net/DTD/sodipodi-0.dtd"
   xmlns:inkscape="http://www.inkscape.org/namespaces/inkscape"
   width="130mm"
   height="130mm"
   viewBox="0 0 130 130"
   version="1.1"
   id="svg8"
   inkscape:version="0.92.4 (5da689c313, 2019-01-14)"
   sodipodi:docname="circleWhite.svg">
  <defs
     id="defs2" />
  <sodipodi:namedview
     id="base"
     pagecolor="#ffffff"
     bordercolor="#666666"
     borderopacity="1.0"
     inkscape:pageopacity="0.0"
     inkscape:pageshadow="2"
     inkscape:zoom="0.5"
     inkscape:cx="1455.8257"
     inkscape:cy="439.64508"
     inkscape:document-units="mm"
     inkscape:current-layer="layer1"
     showgrid="false"
     inkscape:window-width="1829"
     inkscape:window-height="1051"
     inkscape:window-x="-9"
     inkscape:window-y="-9"
     inkscape:window-maximized="1"
     inkscape:snap-nodes="false"
     fit-margin-top="0"
     fit-margin-left="0"
     fit-margin-right="0"
     fit-margin-bottom="0" />
  <metadata
     id="metadata5">
    <rdf:RDF>
      <cc:Work
         rdf:about="">
        <dc:format>image/svg+xml</dc:format>
        <dc:type
           rdf:resource="http://purl.org/dc/dcmitype/StillImage" />
        <dc:title></dc:title>
      </cc:Work>
    </rdf:RDF>
  </metadata>
  <g
     inkscape:label="image"
     inkscape:groupmode="layer"
     id="layer1"
     transform="translate(182.17263,-418.72024)">
    <circle
       style="fill:#000000;fill-opacity:1;stroke:#ffffff;stroke-width:0.99372065;stroke-miterlimit:4;stroke-dasharray:none;stroke-opacity:1"
       id="path4936-4-2"
       cx="-117.17262"
       cy="483.72025"
       r="64.503143"
       inkscape:export-filename="C:\Users\maner\OneDrive\Documentos\Strix\Concept\Logo\logo\circleWhite.png"
       inkscape:export-xdpi="96"
       inkscape:export-ydpi="96" />
    <path
       id="path188-2-1-16-3-3-9"
       style="display:inline;fill:#000000;fill-opacity:1;stroke:#ffffff;stroke-width:1;stroke-linecap:butt;stroke-linejoin:miter;stroke-miterlimit:4;stroke-dasharray:none;stroke-opacity:1"
       d="m -122.57119,493.94721 5.19441,2.84467 5.60271,-2.84467 m 36.349118,-23.50233 1.5311,-13.41301 -8.26791,9.46096 -4.69532,-4.19156 -2.47979,14.32939 z m -13.91192,6.18579 13.91192,-6.18579 -7.55338,8.26337 -8.57409,1.31736 z m 0,0 2.47979,-14.3294 -14.147128,22.65034 v 0 l 11.667338,-8.32094 -11.667338,8.32094 -10.76986,8.9956 14.658958,-7.64625 z m -2.21555,3.39494 c 12.75767,18.42724 -17.780358,29.47633 -20.221648,13.9216 m -8.15452,12.06609 2.75596,-4.91011 2.75596,4.91011 -2.75596,4.91013 z m -38.99172,-35.56842 -1.53109,-13.41301 8.26788,9.46096 4.69534,-4.19156 2.47979,14.3294 z m 13.91192,6.18579 -13.91192,-6.18579 7.55337,8.26337 8.5741,1.31736 z m 0,0 -2.47979,-14.3294 14.14713,22.65034 v 0 l -11.66734,-8.32094 11.66734,8.32094 10.76986,8.9956 -14.65897,-7.64625 z m 2.21555,3.39494 c -12.75768,18.42724 17.78035,29.47633 20.22165,13.9216"
       inkscape:connector-curvature="0"
       inkscape:export-filename="C:\Users\maner\OneDrive\Documentos\Strix\Concept\Logo\logo\circleWhite.png"
       inkscape:export-xdpi="96"
       inkscape:export-ydpi="96" />
  </g>
  <g
     inkscape:groupmode="layer"
     id="layer2"
     inkscape:label="text"
     style="display:inline"
     transform="translate(182.17263,-418.72024)" />
  <g
     inkscape:groupmode="layer"
     id="layer3"
     inkscape:label="owlEyes"
     transform="translate(182.17263,-418.72024)" />
</svg>
